<svg width="67" height="101" viewBox="0 0 67 101" fill="none" xmlns="http://www.w3.org/2000/svg">
<path id="Union" fill-rule="evenodd" clip-rule="evenodd" d="M59.275 8.35537H66.9503V0.719994C63.0364 0.312774 58.7667 4.58859 59.275 8.35537ZM66.9997 11.664V12.6311V84.9636C66.9997 86.847 66.3389 87.8651 64.509 88.0687C63.3036 88.2107 62.0735 88.1794 60.8187 88.1474H60.8183H60.8179C60.2738 88.1335 59.7252 88.1196 59.1719 88.1196V87.2033V14.9217C59.1719 12.9365 59.8835 11.9185 61.7642 11.7149C62.9357 11.5726 64.1569 11.6043 65.393 11.6362C65.9267 11.6501 66.4632 11.664 66.9997 11.664ZM7.78335 31.3638V32.4836V97.2316C7.78335 99.5223 6.81759 100.54 4.53024 100.642C3.89487 100.668 3.2595 100.668 2.62412 100.668C1.98875 100.668 1.35338 100.668 0.718006 100.693C0.209707 100.693 -0.0444465 100.489 0.00638336 99.9804V99.2168V35.3342C0.00638336 32.5854 0.768832 31.5165 3.97111 31.4147C4.8423 31.3388 5.76994 31.3477 6.75404 31.3572L6.75442 31.3572C7.0908 31.3605 7.43378 31.3638 7.78335 31.3638ZM55.0816 19.4899C55.0685 19.2997 55.0549 19.1029 55.0549 18.8925C54.5348 18.8925 54.0324 18.8865 53.5417 18.8808C52.5938 18.8696 51.6895 18.8589 50.7852 18.8925C48.1421 19.0452 47.3288 20.0123 47.3288 22.6083V86.1856C47.3288 86.3403 47.3346 86.4949 47.3403 86.6476C47.3515 86.9472 47.3625 87.2393 47.3288 87.5091C47.278 88.069 47.4813 88.2726 48.0404 88.2726C48.6504 88.2472 49.2731 88.2472 49.8957 88.2472C50.5184 88.2472 51.1411 88.2472 51.751 88.2217C54.14 88.1199 55.1058 87.1019 55.1058 84.7604V20.0123C55.1058 19.8401 55.0939 19.6679 55.0816 19.4899ZM31.5202 31.4144V32.5343V84.6585C31.5202 87.0509 30.5544 88.069 28.1654 88.1708C27.2526 88.2046 26.3624 88.1934 25.4647 88.1822H25.4645H25.4644H25.4643H25.4642H25.4641H25.464H25.4639C25.0121 88.1765 24.5584 88.1708 24.099 88.1708C24.0362 88.1708 23.9734 88.1513 23.8867 88.1245L23.8866 88.1245C23.8329 88.1079 23.7701 88.0884 23.6924 88.069V86.9491V35.0794C23.6924 32.5343 24.404 31.669 26.8947 31.3635C27.7672 31.3011 28.6779 31.3344 29.6385 31.3695H29.6386H29.6386H29.6386H29.6386H29.6387H29.6387H29.6387C30.245 31.3916 30.8712 31.4144 31.5202 31.4144ZM43.3127 32.4327V31.3638H43.3126C41.9402 31.3638 40.7203 31.3638 39.5513 31.4656C36.044 31.5674 35.4849 32.789 35.4849 35.4869V86.7966V87.5602C35.4341 88.0692 35.6882 88.2728 36.1965 88.2728C36.8573 88.2473 37.5054 88.2473 38.1535 88.2473C38.8016 88.2473 39.4496 88.2473 40.1104 88.2219C42.3469 88.1201 43.3127 87.102 43.3127 84.9132V32.4327ZM11.8496 88.2211V86.8976V35.0279C11.8496 32.5337 12.4596 31.7193 14.9502 31.4139C16.0365 31.3051 17.1228 31.3254 18.2275 31.3462H18.2275L18.2277 31.3462C18.6736 31.3545 19.1226 31.363 19.5757 31.363C19.5757 31.5479 19.5894 31.7329 19.6026 31.9108V31.9108V31.9108V31.9109V31.9109V31.9109C19.6148 32.0756 19.6266 32.2342 19.6266 32.381V84.7597C19.6266 87.0503 18.6608 88.0684 16.4243 88.1193C14.9502 88.2211 13.4762 88.2211 11.8496 88.2211ZM11.6963 23.0154C11.6963 25.2042 13.4753 26.9858 15.7119 26.9858C17.9992 26.9858 19.7274 25.2551 19.7782 23.0663C19.7782 20.7757 17.9992 18.9432 15.7627 18.9432C13.5262 18.8923 11.6963 20.7757 11.6963 23.0154ZM39.4003 26.9858C37.113 26.9858 35.3848 25.2551 35.3848 22.9136C35.3848 20.6739 37.2146 18.8923 39.4003 18.8923C41.6368 18.8923 43.4667 20.7757 43.4159 23.0154C43.4159 25.2042 41.6368 26.9858 39.4003 26.9858ZM23.4902 23.0149C23.5411 25.2546 25.3201 26.9853 27.5566 26.9853C29.7931 26.9853 31.5722 25.2546 31.5722 23.0658C31.623 20.8261 29.7931 18.9427 27.5566 18.9427C25.3201 18.8918 23.4902 20.7752 23.4902 23.0149ZM55.0556 95.5516C55.0556 97.7404 53.2257 99.5729 51.04 99.5729C48.8035 99.5729 46.9736 97.7404 46.9736 95.5007C46.9736 93.261 48.7527 91.5303 50.9892 91.5303C53.3274 91.5303 55.0556 93.261 55.0556 95.5516Z" fill="#00663d"/>
</svg>
